<?xml version="1.0" encoding="iso-8859-1"?>
<!-- Uploaded to: SVG Repo, www.svgrepo.com, Generator: SVG Repo Mixer Tools -->
<svg fill="#000000" height="800px" width="800px" version="1.1" id="Layer_1" xmlns="http://www.w3.org/2000/svg" xmlns:xlink="http://www.w3.org/1999/xlink" 
	 viewBox="0 0 491.521 491.521" xml:space="preserve">
<g>
	<g>
		<path d="M489.573,427.178L365.638,303.242l-62.395,62.395l123.936,123.935c2.597,2.597,6.805,2.597,9.403,0l52.992-52.992
			C492.17,433.984,492.17,429.776,489.573,427.178z"/>
	</g>
</g>
<g>
	<g>
		<path d="M349.145,286.75l-21.654-21.654c-2.597-2.597-6.806-2.597-9.403,0l-9.794,9.794l-17.223-17.222
			c47.035-63.239,42.041-152.973-15.345-210.36c-63.077-63.077-165.343-63.077-228.419,0c-63.075,63.076-63.076,165.342,0,228.418
			c57.388,57.386,147.123,62.381,210.361,15.345l17.223,17.222l-9.795,9.795c-2.596,2.597-2.596,6.805,0.001,9.402l21.653,21.655
			l5.283,5.282l62.395-62.395L349.145,286.75z M248.649,248.65c-48.151,48.151-126.219,48.151-174.372,0
			c-48.151-48.151-48.15-126.22,0.002-174.371c48.151-48.152,126.219-48.152,174.37,0
			C296.801,122.43,296.802,200.498,248.649,248.65z"/>
	</g>
</g>
</svg>